<?xml version="1.0" encoding="UTF-8"?>
<svg id="Layer_1" data-name="Layer 1" xmlns="http://www.w3.org/2000/svg" viewBox="0 0 194.21 36.99">
  <defs>
  </defs>
  <path fill="#FFF9EE" class="cls-1" d="M55.21,10.66l.11.23c-.1.73-.19,1.39-.28,1.99-.09.6-.16,1.26-.23,1.97-.06.71-.12,1.39-.17,2.05l-1.88.11c0-1.1-.06-1.83-.19-2.18-.13-.35-.41-.53-.86-.53-.48,0-.98.19-1.52.56-.54.38-1.05.9-1.52,1.58-.05.9-.09,1.7-.11,2.39-.02.69-.06,1.39-.09,2.12s-.07,1.36-.09,1.92c-.02.55-.04.9-.04,1.05,0,.75.12,1.27.36,1.56.24.29.67.43,1.3.43.32,0,.91-.04,1.77-.11l.07.19-.38,2.03c-.58-.02-1.09-.04-1.54-.06-.45-.01-.92-.02-1.41-.04-.49-.01-.93-.02-1.33-.02-.75,0-1.45.01-2.1.04-.65.02-1.38.06-2.18.11l.23-1.84c.75-.08,1.25-.31,1.5-.7.25-.39.38-1.12.38-2.2v-7.89c0-.85-.11-1.45-.34-1.78-.23-.34-.62-.51-1.17-.51-.17,0-.43.04-.75.11l-.19-.26.15-1.5c.93-.18,1.83-.35,2.72-.53.89-.18,1.93-.4,3.13-.68l.3.26c-.12.78-.21,1.45-.26,2.01-.05.56-.07,1.13-.07,1.71l.15.11c.8-1.15,1.69-2.08,2.65-2.8.96-.72,1.85-1.07,2.65-1.07.4,0,.81.05,1.24.15ZM17.39,26.03c-.45,0-.78-.16-.98-.47-.2-.31-.3-.82-.3-1.52,0-.5.03-1.17.09-2.01.06-.84.13-1.72.21-2.65.08-.93.14-1.77.21-2.54.06-.76.09-1.32.09-1.67,0-1.5-.48-2.69-1.43-3.55-.95-.87-2.27-1.3-3.94-1.3-.28,0-.65.11-1.13.34-.47.23-.98.5-1.5.83-.53.32-1.03.66-1.5.99-.48.34-.84.61-1.09.81l-.11-.15c.05-.65.19-1.49.41-2.52l-.26-.34c-1.18.28-2.22.5-3.14.66-.91.16-1.87.33-2.87.51L0,12.99l.15.19h.45c.68,0,1.14.16,1.41.49.26.33.39.91.39,1.77v8.64c0,.7-.14,1.21-.43,1.52-.29.31-.8.52-1.52.62l-.26,1.91c.87-.08,1.63-.13,2.25-.17.63-.04,1.23-.06,1.8-.06.5,0,1.03,0,1.6.02.56.01,1.26.04,2.08.09l.34-1.95-.07-.15c-.58.05-.96.08-1.16.08-.45,0-.78-.14-.98-.43-.2-.29-.3-.78-.3-1.48,0-.32.01-.84.04-1.56.02-.72.06-1.51.11-2.39.05-.88.09-1.75.13-2.63.04-.88.07-1.65.09-2.33.23-.18.55-.39.98-.66.42-.26.91-.5,1.45-.71.54-.21,1.07-.32,1.6-.32.93,0,1.63.31,2.1.92.47.61.72,1.51.72,2.69l-.15,7.02c0,.63-.15,1.12-.45,1.48-.3.36-.79.63-1.47.81l-.19,1.88c.53-.08,1-.14,1.43-.19.43-.05.87-.09,1.32-.13.45-.04.87-.06,1.28-.06.35,0,.73,0,1.15.02.41.01.81.02,1.2.04.39.01.82.03,1.3.06l.34-1.91-.08-.15c-.63.05-1.04.08-1.24.08ZM39.28,23.92l.19.34c-.4,1.88-1.3,3.18-2.7,3.91-1.18-.05-2.1-.45-2.78-1.2-.68-.75-1.05-1.82-1.13-3.19l-.28-.16c-.89,1.19-1.74,2.18-2.57,2.9-1.28,1.13-2.48,1.69-3.61,1.69-.83,0-1.59-.35-2.29-1.05-.7-.7-1.27-1.65-1.69-2.84-.43-1.19-.64-2.5-.64-3.92,0-1.83.3-3.48.92-4.96.61-1.48,1.42-2.65,2.42-3.53,1-.88,2.12-1.32,3.34-1.32,1.1.23,2.07.88,2.89,1.97.83,1.09,1.4,2.42,1.73,4h.25c.21-.44.43-.88.63-1.35.64-1.48,1.24-3.04,1.78-4.7l.49-.15c.47.38.9.78,1.26,1.22.36.44.73.93,1.11,1.48-1.6,3.36-3.12,6.15-4.55,8.39-.02.03-.03.05-.05.07.09,1.04.47,1.77,1.16,2.18.86.51,2.24.58,4.11.21ZM31.94,19.25c.07-.12.13-.25.2-.37-.27-1.36-.59-2.41-.97-3.12-.5-.94-1.24-1.41-2.21-1.41-.88,0-1.7.35-2.46,1.05-.76.7-1.38,1.63-1.84,2.8-.46,1.17-.69,2.44-.69,3.81,0,2.13.6,3.19,1.8,3.19.58,0,1.21-.24,1.9-.73.69-.49,1.39-1.18,2.12-2.06.72-.89,1.45-1.94,2.16-3.16ZM189.74,6.46c.78,0,1.4-.25,1.86-.75.46-.5.69-1.11.69-1.84,0-.63-.19-1.16-.56-1.6-.38-.44-.91-.66-1.62-.66-.75,0-1.36.25-1.84.75-.48.5-.71,1.11-.71,1.84,0,.6.18,1.13.54,1.58.36.45.91.68,1.63.68ZM81.61,6.46c.78,0,1.39-.25,1.86-.75.46-.5.69-1.11.69-1.84,0-.63-.19-1.16-.56-1.6-.38-.44-.92-.66-1.62-.66-.75,0-1.36.25-1.84.75-.47.5-.71,1.11-.71,1.84,0,.6.18,1.13.54,1.58.36.45.91.68,1.63.68ZM179.77,24.17c-.86.09-1.55-.11-2.06-.6-.51-.49-.88-1.28-1.11-2.37-.19-.91-.27-2.05-.27-3.4.23-.28.47-.56.7-.81.66-.71,1.4-1.36,2.2-1.95.8-.59,1.7-1.17,2.7-1.75l.11-.49c-.23-.47-.5-.91-.81-1.31-.31-.4-.66-.79-1.03-1.17-.78.3-1.5.71-2.16,1.22-.66.51-1.39,1.22-2.18,2.12s-1.75,2.1-2.87,3.61l-1.63,2.19-.25-.09c.38-2.78.24-4.93-.41-6.44-.65-1.51-1.79-2.31-3.42-2.39-.68.43-1.25.96-1.71,1.62-.46.65-.81,1.42-1.03,2.29l.3.34c1.68-.35,2.88-.27,3.62.24.74.51,1.11,1.5,1.11,2.95,0,.93-.13,2.1-.38,3.51-.06.37-.14.76-.23,1.18l-2.4,3.23,1.91,2.18.37.07h0s.02,0,.02,0h.02s0,0,0,0l1.53-.4.4-2.35,3.57-5.07.24.13c.1,1.48.26,2.71.47,3.7.21.99.52,1.77.92,2.35.4.58.91,1,1.54,1.28.62.28,1.4.44,2.33.49.6-.35,1.11-.75,1.54-1.2.42-.45.79-.96,1.11-1.54.31-.57.57-1.23.77-1.95l-.38-.45c-1.25.6-2.31.94-3.17,1.03ZM162.43,23.92l.19.34c-.4,1.88-1.3,3.18-2.7,3.91-1.18-.05-2.1-.45-2.78-1.2-.68-.75-1.05-1.82-1.13-3.19l-.28-.16c-.89,1.19-1.75,2.18-2.57,2.9-1.28,1.13-2.48,1.69-3.61,1.69-.83,0-1.59-.35-2.29-1.05-.7-.7-1.27-1.65-1.69-2.84-.43-1.19-.64-2.5-.64-3.92,0-1.83.31-3.48.92-4.96.61-1.48,1.42-2.65,2.42-3.53,1-.88,2.12-1.32,3.34-1.32,1.1.23,2.07.88,2.89,1.97.83,1.09,1.4,2.42,1.73,4h.25c.21-.44.43-.88.63-1.35.64-1.48,1.23-3.04,1.78-4.7l.49-.15c.47.38.9.78,1.26,1.22.36.44.73.93,1.11,1.48-1.6,3.36-3.12,6.15-4.54,8.39-.02.03-.03.05-.05.07.09,1.04.47,1.77,1.16,2.18.86.51,2.24.58,4.11.21ZM155.09,19.25c.07-.12.13-.25.2-.37-.27-1.36-.59-2.41-.97-3.12-.5-.94-1.24-1.41-2.22-1.41-.88,0-1.7.35-2.46,1.05-.76.7-1.38,1.63-1.84,2.8-.46,1.17-.69,2.44-.69,3.81,0,2.13.6,3.19,1.8,3.19.58,0,1.21-.24,1.9-.73.69-.49,1.39-1.18,2.12-2.06.72-.89,1.45-1.94,2.16-3.16ZM142.04,7.25l-.56.94c-.93-.58-1.9-1.14-2.91-1.69-1.01-.55-2-1.04-2.95-1.46-.95-.43-1.8-.77-2.55-1.03-.75-.26-1.31-.39-1.69-.39-.35,0-.53.17-.53.53,0,.32.24.76.71,1.3.47.54,1.09,1.16,1.84,1.86.75.7,1.54,1.49,2.37,2.36s1.61,1.84,2.35,2.89c.74,1.05,1.34,2.17,1.8,3.36.46,1.19.69,2.45.69,3.77,0,1.6-.34,3.04-1.01,4.32-.68,1.28-1.6,2.29-2.76,3.04-1.16.75-2.49,1.13-3.96,1.13-1.1,0-2.13-.22-3.08-.66-.95-.44-1.78-1.05-2.5-1.84-.71-.79-1.27-1.72-1.67-2.8-.4-1.08-.6-2.24-.6-3.49,0-1.43.28-2.69.84-3.79.56-1.1,1.36-1.98,2.4-2.65,1.04-.66,2.26-1.02,3.66-1.07.53.1,1.05.24,1.56.41.51.17,1.03.38,1.56.6l.22-.23s-.07-.1-.1-.15c-.68-.85-1.39-1.66-2.14-2.44-.75-.78-1.46-1.53-2.12-2.25-.66-.73-1.21-1.45-1.65-2.18-.44-.73-.66-1.46-.66-2.21,0-.88.33-1.61.99-2.2.66-.59,1.57-.99,2.72-1.22,4.48,1.1,7.72,3.52,9.73,7.25ZM137.46,18.36c0-1.1-.21-2.14-.64-3.12,0-.01-.01-.03-.02-.04-.25-.11-.49-.2-.73-.28-.53-.16-1.09-.25-1.69-.25-1.15,0-2.2.29-3.16.87-.95.58-1.71,1.34-2.27,2.29-.56.95-.84,2.02-.84,3.19,0,1.25.31,2.24.94,2.95.63.71,1.48,1.07,2.55,1.07.8,0,1.55-.17,2.25-.53.7-.35,1.33-.84,1.88-1.46.55-.63.98-1.34,1.28-2.14.3-.8.45-1.65.45-2.55ZM194.13,25.91c-.6.05-1,.08-1.2.08-.45,0-.77-.15-.96-.45-.19-.3-.28-.78-.28-1.43,0-1.58.02-3.1.06-4.56.04-1.47.09-2.8.17-4.02.08-1.21.17-2.24.28-3.06.11-.83.23-1.36.36-1.62l-.26-.53c-.73.15-1.39.29-1.99.41-.6.13-1.26.25-1.99.38-.73.12-1.46.25-2.22.38l-.15,1.73c.43-.1.73-.15.9-.15.53,0,.9.16,1.13.49.23.33.34.85.34,1.58v8.9c0,.65-.16,1.17-.49,1.56-.33.39-.86.67-1.62.85l-.23,1.91c.93-.15,1.72-.26,2.37-.34.65-.08,1.26-.11,1.84-.11.38,0,.78,0,1.2.02.42.01.83.02,1.2.04.38.01.8.03,1.28.06l.34-1.91-.07-.19ZM102.72,24.07c-.58,0-1.01-.22-1.3-.66-.29-.44-.58-1.14-.88-2.12l-4.02-14.54c-.6-2.15-1.41-3.79-2.42-4.9-1.01-1.11-2.21-1.67-3.59-1.67-1.63.98-2.44,2.52-2.44,4.62l.41.41c1.33-.47,2.35-.75,3.08-.81.73-.06,1.3.15,1.71.64.41.49.78,1.32,1.11,2.5l.96,3.41c-.98,2.22-2.02,4.54-3.14,7-1.23,2.68-2.6,5.65-4.13,8.9l.15.34,2.89,1.09.38-.11c.73-1.78,1.5-3.7,2.31-5.76.81-2.07,1.67-4.33,2.57-6.78h.29l2.42,8.56c.4,1.55.88,2.61,1.45,3.16.56.55,1.41.83,2.53.83.65-.45,1.19-1.03,1.61-1.73.43-.7.72-1.49.87-2.37l-.38-.45c-1.05.3-1.87.45-2.44.45ZM121.87,16.19c0,.35-.03.71-.09,1.09-.06.38-.12.68-.17.9l-.45.41h-10.07c0,2,.4,3.58,1.2,4.73.8,1.15,1.93,1.8,3.4,1.95,1.46.15,3.19-.23,5.16-1.13l.23.11.53,1.43c-.53.38-1.15.77-1.86,1.18-.72.41-1.44.76-2.18,1.05-.74.29-1.41.43-2.01.43-1.65,0-3.09-.35-4.32-1.05-1.23-.7-2.18-1.68-2.85-2.95-.68-1.26-1.02-2.75-1.02-4.45,0-1.33.23-2.57.68-3.72.45-1.15,1.07-2.17,1.86-3.04.79-.88,1.7-1.56,2.72-2.06,1.03-.5,2.13-.75,3.31-.75,3.95,0,5.93,1.95,5.93,5.86ZM118.04,15.66c0-.98-.24-1.72-.71-2.22-.48-.5-1.16-.75-2.07-.75-1.08,0-1.98.37-2.72,1.11-.74.74-1.2,1.77-1.37,3.1l6.05-.3c.32-.05.54-.13.66-.24.11-.11.17-.34.17-.69ZM84.8,25.99c-.45,0-.77-.15-.96-.45-.19-.3-.28-.78-.28-1.43,0-1.58.02-3.1.06-4.56.04-1.47.09-2.8.17-4.02.08-1.21.17-2.24.28-3.06s.23-1.36.36-1.62l-.26-.53c-.73.15-1.39.29-1.99.41-.6.13-1.27.25-1.99.38-.72.12-1.46.25-2.21.38l-.15,1.73c.42-.1.72-.15.9-.15.53,0,.9.16,1.13.49.23.33.34.85.34,1.58v8.9c0,.65-.16,1.17-.49,1.56-.32.39-.86.67-1.61.85l-.23,1.91c.93-.15,1.72-.26,2.36-.34.65-.08,1.26-.11,1.84-.11.38,0,.77,0,1.2.02.42.01.83.02,1.2.04.38.01.8.03,1.28.06l.34-1.91-.08-.19c-.6.05-1,.08-1.2.08ZM75.19,9.5l.15.19-.45,2.44c-.5.08-1.03.13-1.6.17-.56.04-1.03.08-1.41.13l-.15.19c1,1.08,1.5,2.34,1.5,3.79,0,1.25-.34,2.38-1.03,3.38-.69,1-1.61,1.8-2.76,2.38-1.15.59-2.46.88-3.91.88-.83,0-1.58-.11-2.29-.3-.35.23-.64.44-.83.63-.3.3-.45.6-.45.9,0,.48.31.83.92,1.05.61.23,1.39.39,2.33.49.94.1,1.95.21,3.03.34,1.08.12,2.09.32,3.04.6.95.28,1.73.68,2.33,1.2s.9,1.26.9,2.22c0,.85-.26,1.68-.79,2.5-.53.81-1.25,1.55-2.16,2.2-.91.65-1.94,1.16-3.08,1.54-1.14.38-2.32.56-3.55.56s-2.33-.21-3.25-.62c-.92-.41-1.62-1.01-2.12-1.78-.5-.78-.75-1.68-.75-2.7.32-.4.83-.88,1.5-1.45.68-.56,1.41-1.12,2.21-1.67v-.23c-1.25-.23-2.21-.66-2.89-1.3-.68-.64-1.04-1.46-1.09-2.46.45-.45.93-.88,1.45-1.3.51-.41,1.07-.81,1.67-1.18v-.19c-.82-.47-1.48-1.08-1.97-1.85-.56-.89-.85-1.91-.85-3.06,0-1.3.32-2.47.98-3.49.65-1.03,1.53-1.85,2.65-2.48,1.11-.63,2.35-.94,3.7-.94.75,0,1.44.07,2.07.21.62.14,1.2.21,1.73.21.5-.05,1.21-.18,2.14-.39.93-.21,1.95-.48,3.08-.81ZM62.57,32.15c0,.78.33,1.4.99,1.88.66.47,1.57.71,2.72.71.9,0,1.73-.15,2.48-.45.75-.3,1.36-.7,1.82-1.2s.69-1.05.69-1.65c0-.45-.17-.81-.51-1.09-.34-.28-.99-.52-1.97-.73-.98-.21-2.42-.44-4.32-.69-.63.48-1.1,1-1.43,1.56-.33.56-.49,1.12-.49,1.67ZM69.59,17.16c0-1.38-.35-2.48-1.03-3.31-.69-.83-1.61-1.24-2.76-1.24-1.05,0-1.87.34-2.44,1.03-.58.69-.86,1.66-.86,2.91,0,1.35.34,2.44,1.03,3.25.69.81,1.61,1.22,2.76,1.22,1.05,0,1.86-.34,2.44-1.01.57-.68.86-1.63.86-2.85Z"/>
</svg>